<?xml version="1.0" encoding="UTF-8"?>
<svg viewBox="0 0 24 24" xmlns="http://www.w3.org/2000/svg">
  <g fill="none" stroke="currentColor" stroke-width="2" stroke-linecap="round" stroke-linejoin="round">
    <path d="M21.44 11.05L12.25 20.24C11.1242 21.3658 9.59722 21.9983 8.005 21.9983C6.41278 21.9983 4.88581 21.3658 3.76 20.24C2.63419 19.1142 2.00166 17.5872 2.00166 15.995C2.00166 14.4028 2.63419 12.8758 3.76 11.75L12.95 2.56C13.7006 1.80943 14.7186 1.38639 15.78 1.38639C16.8414 1.38639 17.8594 1.80943 18.61 2.56C19.3606 3.31057 19.7836 4.32858 19.7836 5.39C19.7836 6.45142 19.3606 7.46943 18.61 8.22L9.41 17.41C9.03478 17.7852 8.52382 17.9957 7.99 17.9957C7.45618 17.9957 6.94522 17.7852 6.57 17.41C6.19478 17.0348 5.98426 16.5238 5.98426 15.99C5.98426 15.4562 6.19478 14.9452 6.57 14.57L15.07 6.07"/>
  </g>
</svg>