<?xml version="1.0" encoding="UTF-8"?>
<svg viewBox="0 0 24 24" xmlns="http://www.w3.org/2000/svg">
  <g fill="none" stroke="currentColor" stroke-width="2" stroke-linecap="round" stroke-linejoin="round">
    <polyline points="20,12 20,22 4,22 4,12"/>
    <rect x="2" y="7" width="20" height="5"/>
    <line x1="12" y1="22" x2="12" y2="7"/>
    <path d="M12 7H7.5C6.83696 7 6.20107 6.73661 5.73223 6.26777C5.26339 5.79893 5 5.16304 5 4.5C5 3.83696 5.26339 3.20107 5.73223 2.73223C6.20107 2.26339 6.83696 2 7.5 2C9 2 10 3 11 5"/>
    <path d="M12 7H16.5C17.163 7 17.7989 6.73661 18.2678 6.26777C18.7366 5.79893 19 5.16304 19 4.5C19 3.83696 18.7366 3.20107 18.2678 2.73223C17.7989 2.26339 17.163 2 16.5 2C15 2 14 3 13 5"/>
  </g>
</svg>