<?xml version="1.0" encoding="UTF-8"?>
<svg viewBox="0 0 24 24" xmlns="http://www.w3.org/2000/svg">
  <g fill="none" stroke="currentColor" stroke-width="2" stroke-linecap="round" stroke-linejoin="round">
    <path d="M12 1C10.8954 1 10 1.89543 10 3V11C10 12.1046 10.8954 13 12 13C13.1046 13 14 12.1046 14 11V3C14 1.89543 13.1046 1 12 1Z"/>
    <path d="M19 10V11C19 15.4183 15.4183 19 11 19H13C17.4183 19 21 15.4183 21 11V10"/>
    <path d="M5 10V11C5 15.4183 8.58172 19 13 19H11C6.58172 19 3 15.4183 3 11V10"/>
    <line x1="12" y1="19" x2="12" y2="23"/>
    <line x1="8" y1="23" x2="16" y2="23"/>
  </g>
</svg>